# xmcd
#
# Track frame offsets:
#	150
#	12350
#	24925
#	40297
#	59260
#	72230
#	85460
#	104320
#	116465
#	126107
#	142710
#	155070
#
# Disc length: 2287 seconds
#
# Revision: 2
# Processed by: cddbd v1.5.1PL0 Copyright (c) Steve Scherf et al.
# Submitted via: dBpowerAMP V4.0
#
DISCID=9908ed0c
DTITLE=Clint Black - One Emotion
DYEAR=1993
DGENRE=Country
TTITLE0=One Emotion
TTITLE1=Summer's Commin'
TTITLE2=Untanglin' My Mind
TTITLE3=Wherever You Go
TTITLE4=A change In The Air
TTITLE5=Life Gets Away
TTITLE6=I Can Get By
TTITLE7=Hey Hot Rod
TTITLE8=You Walked By
TTITLE9=You Made Me Feel
TTITLE10=A good Run Of Bad Luck
TTITLE11=A Bad Goodbye
EXTD=74321-22957-26
EXTT0=
EXTT1=
EXTT2=
EXTT3=
EXTT4=
EXTT5=
EXTT6=
EXTT7=
EXTT8=
EXTT9=
EXTT10=
EXTT11=
PLAYORDER=
